<?xml version="1.0" encoding="utf-8"?>
<!-- Generator: Adobe Illustrator 16.0.0, SVG Export Plug-In . SVG Version: 6.00 Build 0)  -->
<!DOCTYPE svg PUBLIC "-//W3C//DTD SVG 1.1//EN" "http://www.w3.org/Graphics/SVG/1.1/DTD/svg11.dtd">
<svg version="1.1" id="Layer_1" xmlns="http://www.w3.org/2000/svg" xmlns:xlink="http://www.w3.org/1999/xlink" x="0px" y="0px"
	 width="114.348px" height="113.043px" viewBox="92.935 96.065 114.348 113.043"
	 enable-background="new 92.935 96.065 114.348 113.043" xml:space="preserve">
<path fill="#24B2B0" d="M192.422,177.963c-0.767-0.053-2.01-0.119-2.01-0.119l-0.018-0.781l-0.154-0.255l-0.188-0.004v-0.883
	l-0.131-0.215v-4.896c0.379,0.022,0.738,0.056,1.044,0.1v-0.923c-0.252-0.38-0.604-0.738-1.044-1.078v-0.721v-6.858v-4.57
	l-0.17-0.139v-4.146l-0.027-0.105v-3.768l-0.252-0.309v-0.275h-0.222v0.275l-0.251,0.355h-0.396l-0.174,0.166l-1.819,0.001
	l-0.173-0.167l-0.395-0.019l-0.255-0.309v-0.275h-0.22v0.275l-0.255,0.309v0.923l-0.102-0.02c-0.356,1.88-2.104,10.054-4.213,13.859
	c-3.111-4.735-6.578-16.178-9.496-27.784c-2.407-9.583-4.473-19.436-5.609-25.098v-3.516l-0.727-0.896v-0.794h-0.646v0.794
	l-0.725,0.948h-1.146l-0.496,0.481l-5.274-0.003l-0.501-0.481h-1.147v-0.135l-0.725-0.896v-0.793h-0.646v0.793l-0.727,0.896v1.227
	c-1.68,2.588-4.547,6.957-7.697,11.575c-4.986,7.307-11.028,15.771-15.279,20.452c-3.979,4.38-7.623,8.013-10.952,10.999
	l-2.006,1.783c-0.438,0.375-1.652,1.391-1.652,1.391c-5.678,4.677-10.308,7.388-13.997,8.902v8.943
	c1.605-0.05,12.928-0.574,34.627-1.586h10.392v-1.055c2.592-0.26,4.797-0.481,5.997-0.585v16.486l-0.376,0.624v2.553l-0.556,0.016
	l-0.445,0.735l-0.049,2.264c0,0-3.602,0.198-5.819,0.348c-2.218,0.144-3.847,0.595-3.847,0.595v0.883c0,0,2.662,0.694,7.791,0.694
	c1.469,0,18.903,0,20.37,0c5.133,0,7.79-0.694,7.79-0.694v-0.883c0,0-1.626-0.45-3.846-0.595c-2.218-0.148-5.82-0.348-5.82-0.348
	l-0.05-2.264l-0.443-0.735l-0.427-0.013v-2.47l-0.376-0.622V168.19c10.214-0.381,15.568,0.238,18.658,1.817v5.728l-0.133,0.216
	v0.854l-0.145,0.003l-0.152,0.255l-0.02,0.781c0,0-1.241,0.066-2.009,0.119c-0.763,0.053-1.326,0.206-1.326,0.206v0.305
	c0,0,0.92,0.239,2.689,0.239c0.259,0,1.936,0.038,3.596,0.038c1.598,0,3.186-0.038,3.435-0.038c1.771,0,2.688-0.239,2.688-0.239
	v-0.305C193.748,178.169,193.186,178.016,192.422,177.963z M102.333,163.669l-0.439,0.013l0.438-0.185h0.001V163.669z
	 M103.984,163.631l-1.295,0.029v-0.321c0.421-0.188,0.853-0.392,1.295-0.609V163.631z M105.636,163.593l-1.296,0.03v-1.072
	c0.422-0.213,0.854-0.44,1.296-0.682V163.593z M107.287,163.559l-1.295,0.025v-1.91c0.422-0.237,0.856-0.488,1.295-0.752V163.559z
	 M108.938,163.525l-1.294,0.023v-2.844c0.423-0.258,0.854-0.53,1.294-0.813V163.525z M110.591,163.497l-1.295,0.021v-3.86
	c0.424-0.281,0.856-0.573,1.295-0.877V163.497z M112.243,163.47l-1.295,0.021v-4.958c0.424-0.298,0.856-0.607,1.295-0.93V163.47z
	 M113.896,163.445l-1.296,0.02v-6.126c0.425-0.317,0.856-0.646,1.296-0.986V163.445z M115.546,163.423l-1.295,0.017v-7.365
	c0.426-0.334,0.856-0.681,1.295-1.038V163.423z M117.198,163.401l-1.296,0.017v-8.672c0.426-0.352,0.859-0.714,1.296-1.086V163.401z
	 M118.849,163.29l-0.25,0.096l-1.045,0.014v-10.045c0.427-0.367,0.858-0.746,1.295-1.132V163.29z M120.501,163.367l-0.367,0.002
	l0.367-0.152V163.367z M120.501,162.623c-0.437,0.188-0.867,0.365-1.296,0.532v-11.251c0.427-0.379,0.859-0.771,1.296-1.176V162.623
	z M122.153,163.353l-1.296,0.012v-0.3c0.43-0.188,0.861-0.387,1.296-0.597V163.353z M122.153,161.859
	c-0.436,0.214-0.867,0.416-1.296,0.607v-12.068c0.427-0.396,0.86-0.803,1.296-1.219V161.859z M123.805,163.34l-1.295,0.012v-1.059
	c0.429-0.214,0.861-0.435,1.295-0.669V163.34z M123.805,161.003c-0.435,0.238-0.866,0.466-1.295,0.681V148.84
	c0.428-0.411,0.859-0.83,1.295-1.26V161.003z M125.457,163.33l-1.296,0.009v-1.909c0.43-0.235,0.861-0.48,1.296-0.738V163.33z
	 M125.457,160.052c-0.436,0.262-0.867,0.515-1.296,0.754v-13.579c0.428-0.424,0.86-0.857,1.296-1.3V160.052z M127.108,163.323
	l-1.296,0.008v-2.854c0.43-0.259,0.861-0.529,1.296-0.813V163.323z M127.108,159.01c-0.435,0.287-0.867,0.564-1.296,0.829v-14.274
	c0.428-0.437,0.86-0.883,1.296-1.337V159.01z M128.76,163.32l-1.295,0.003v-3.896c0.429-0.284,0.86-0.581,1.295-0.89V163.32z
	 M128.76,157.868c-0.435,0.313-0.866,0.614-1.295,0.903v-14.917c0.427-0.449,0.858-0.907,1.295-1.375V157.868z M130.412,163.317
	l-1.296,0.003v-5.037c0.43-0.309,0.861-0.631,1.296-0.964V163.317z M130.412,156.63c-0.435,0.338-0.866,0.663-1.296,0.979v-15.511
	c0.428-0.461,0.858-0.932,1.296-1.411V156.63z M132.063,163.315h-1.295v-6.272c0.43-0.333,0.863-0.684,1.295-1.042V163.315z
	 M132.063,155.294c-0.435,0.364-0.866,0.717-1.295,1.056v-16.054c0.417-0.465,0.849-0.963,1.295-1.492V155.294z M133.715,163.318
	l-1.296-0.003v-7.612c0.431-0.36,0.863-0.731,1.296-1.117V163.318z M133.715,153.854c-0.433,0.392-0.865,0.771-1.296,1.137v-16.611
	c0.421-0.506,0.854-1.037,1.296-1.589V153.854z M135.367,163.323l-1.296-0.003v-9.054c0.431-0.388,0.863-0.786,1.296-1.197V163.323z
	 M135.367,152.313l-0.224,0.216c-0.359,0.342-0.716,0.677-1.072,1.001v-17.186c0.425-0.537,0.857-1.09,1.296-1.66V152.313z
	 M137.018,163.328l-1.296-0.005v-10.596c0.431-0.416,0.862-0.854,1.296-1.31V163.328z M137.018,150.625
	c-0.435,0.465-0.867,0.91-1.296,1.337v-17.74c0.428-0.559,0.861-1.132,1.296-1.715V150.625z M138.67,163.339l-1.296-0.009v-12.287
	c0.431-0.461,0.863-0.94,1.296-1.433V163.339z M138.67,148.779c-0.433,0.502-0.866,0.989-1.296,1.459V132.03
	c0.429-0.577,0.862-1.165,1.296-1.759V148.779z M140.321,163.353l-1.295-0.011v-14.14c0.431-0.499,0.863-1.014,1.295-1.542V163.353z
	 M140.321,146.792c-0.432,0.537-0.864,1.062-1.295,1.57v-18.58c0.431-0.594,0.863-1.193,1.295-1.796V146.792z M141.973,163.366
	l-1.295-0.014v-16.132c0.431-0.535,0.864-1.083,1.295-1.644V163.366z M141.973,144.68c-0.431,0.568-0.863,1.125-1.295,1.669v-18.859
	c0.434-0.608,0.866-1.217,1.295-1.829V144.68z M143.623,163.383l-1.294-0.018v-18.253c0.432-0.568,0.864-1.147,1.294-1.735V163.383z
	 M143.623,142.449c-0.43,0.596-0.862,1.183-1.294,1.76v-19.055c0.436-0.62,0.867-1.239,1.294-1.857V142.449z M145.276,163.402
	l-1.295-0.015v-20.5c0.434-0.6,0.866-1.207,1.295-1.82V163.402z M145.276,140.112c-0.429,0.622-0.861,1.236-1.295,1.842v-19.169
	c0.437-0.632,0.871-1.26,1.295-1.881V140.112z M146.928,163.426l-1.295-0.021v-22.849c0.434-0.625,0.866-1.261,1.295-1.9V163.426z
	 M146.928,137.675c-0.429,0.646-0.861,1.286-1.295,1.921v-19.212l0.254-0.37l1.041-1.535V137.675z M148.581,163.451l-1.297-0.02
	v-25.306c0.437-0.654,0.867-1.313,1.297-1.974V163.451z M148.581,135.146c-0.427,0.667-0.861,1.333-1.297,1.993v-19.186l1.297-1.926
	V135.146z M150.231,163.479l-1.292-0.02V135.6c0.433-0.678,0.865-1.359,1.292-2.041V163.479z M150.231,132.526
	c-0.428,0.689-0.859,1.376-1.292,2.061v-19.091l1.292-1.945V132.526z M151.883,163.514l-1.297-0.024v-30.502
	c0.439-0.702,0.873-1.406,1.297-2.108V163.514z M151.883,129.827c-0.424,0.707-0.857,1.416-1.297,2.126v-18.939l1.297-1.964V129.827
	z M153.054,130.14l-0.487,0.404v13.252v19.732l-0.33-0.008v-33.228l0.813-1.357h0.002L153.054,130.14L153.054,130.14z
	 M153.121,127.685l-0.884,1.548v-18.728l0.896-1.368L153.121,127.685z M162.149,111.102h0.101l-0.101,0.196V111.102z
	 M162.147,135.902h0.085c0.327,1.025,0.661,2.048,0.996,3.069v6.932h-0.366l-0.528,0.594h-0.185L162.147,135.902L162.147,135.902z
	 M162.147,152.006l0.041,0.152l0.367,0.647l0.136,0.711l0.065,1.341l0.472,0.069v8.896c-0.557-0.019-1.079-0.03-1.079-0.03
	L162.147,152.006L162.147,152.006z M160.496,111.102h1.297v0.888c-0.4,0.777-0.836,1.609-1.297,2.487V111.102z M160.496,115.665
	c0.463-0.872,0.896-1.694,1.297-2.468v0.724v5.304l-1.297,0.007V115.665z M160.496,122.798h1.297v8.68l-0.342-0.001
	c-0.325-1.086-0.645-2.168-0.955-3.237V122.798L160.496,122.798z M160.496,130.231l0.371,1.244h-0.371V130.231z M160.496,135.902
	h1.297v10.595l-1.297-0.003V135.902z M160.496,151.569l1.297,0.002v12.211l-1.297-0.044V151.569z M158.847,111.101l1.295,0.001
	v4.051c-0.412,0.779-0.843,1.592-1.295,2.428V111.101z M158.847,118.739c0.449-0.831,0.882-1.635,1.295-2.406v2.9l-1.129,0.006
	h-0.166V118.739L158.847,118.739z M160.142,122.797v4.202c-0.408-1.431-0.798-2.835-1.171-4.197l1.045-0.004H160.142z
	 M158.847,124.465c0.411,1.483,0.843,3.007,1.295,4.556v2.455h-1.295V124.465z M158.847,135.902h0.278h1.017v10.592h-1.295V135.902
	L158.847,135.902z M158.847,151.567l1.295,0.002v12.159l-1.295-0.041V151.567z M160.606,168.481l-0.819,0.96h-0.494l-0.729-0.851
	L160.606,168.481z M159.661,179.206h-0.244l-2.396-2.805v-0.451h4.999v0.489L159.661,179.206z M159.765,181.409l2.479,2.888v0.247
	h-5.368v-0.294l2.438-2.839v-0.003L159.765,181.409L159.765,181.409z M157.022,174.929v-0.467l2.415-2.813h0.204l2.381,2.776v0.503
	H157.022z M158.487,151.567v12.109l-1.293-0.037v-12.072H158.487z M157.194,146.494V135.9l1.293,0.001v10.593H157.194z
	 M157.194,111.099l1.293,0.002v7.141l-0.491,0.915c-0.283-1.072-0.552-2.102-0.802-3.083V111.099z M157.194,118.319l0.24,0.921
	h-0.24V118.319z M157.192,122.813l1.196-0.007l0.098,0.367l0,0v8.302h-1.295L157.192,122.813L157.192,122.813z M157.079,168.666
	l1.335,1.552v0.829l-2.265,2.651h-0.352v-4.961L157.079,168.666z M156.84,163.632l-1.04-0.026v-8.692l0.388-0.059l0.066-1.341
	l0.132-0.711l0.368-0.647l0.084-0.321h0.003L156.84,163.632L156.84,163.632z M155.8,145.898v-8.557l0.318-0.119l0.065-0.816
	l0.39-0.508l0.265,0.002v10.591h-0.224l-0.53-0.593H155.8z M156.504,111.309v-0.211h0.334v3.574
	c-0.307-1.22-0.586-2.349-0.836-3.363H156.504z M155.543,111.766c0.373,1.53,0.805,3.274,1.296,5.178v1.509l-0.006,0.787l-0.5-0.48
	h-0.79V111.766z M155.543,124.666c0.356-0.625,0.706-1.242,1.049-1.852l0.247-0.001v8.662h-0.322l-0.528-0.596h-0.189v-0.334
	l-0.256-0.214V124.666z M155.798,183.316v-5.839v-0.37h0.496l-0.003,0.256l2.124,2.473v0.829l-2.265,2.65L155.798,183.316
	L155.798,183.316z M162.852,188.533l-6.673-0.006l-0.021-2.498l0.512-0.46h5.72l0.461,0.807L162.852,188.533L162.852,188.533z
	 M163.228,177.563v5.898l-0.18-0.01l-2.37-2.772v-0.857l2.331-2.715h0.219V177.563z M163.231,173.7h-0.301l-2.253-2.638v-0.854
	l1.557-1.816l0.997-0.057V173.7z M163.444,130.453l-0.216,0.177v0.254h-0.185l-0.528,0.594h-0.365l0,0v-8.68h0.42v0.211h0.368
	l0.507,0.934L163.444,130.453L163.444,130.453z M163.444,112.411v6.331h-0.749l-0.546,0.48v-5.301v-1.408l0.617-1.201v0.001h0.573
	l0.104,0.133L163.444,112.411L163.444,112.411z M183.768,157.759c0.177-0.599,0.348-1.2,0.508-1.791v9.457
	c-0.217,0.161-0.444,0.243-0.757,0.222v-7.075C183.605,158.298,183.688,158.028,183.768,157.759z M182.552,161.325
	c0.268-0.679,0.521-1.392,0.757-2.107l0.023,6.392c0.039,0.013,0.083,0.02,0.148,0.033c-0.004,0-0.01,0-0.016,0
	c-0.045-0.01-0.09-0.021-0.158-0.041c-0.247-0.073-0.499-0.212-0.758-0.408v-3.868H182.552z M180.621,163.726l0.099,0.146
	l-0.099,0.152V163.726z M166.888,163.987l-0.424-0.022V147.98l0.424,1.069V163.987z M166.886,118.048v29.505l-0.422-1.104v-15.82
	l-0.336-0.278v-15.919c0.231,1.126,0.486,2.336,0.762,3.616H166.886z M167.853,164.045l-0.759-0.046v-14.434
	c0.252,0.618,0.505,1.224,0.759,1.82V164.045z M167.853,149.971c-0.254-0.617-0.507-1.246-0.759-1.884v-29.065
	c0.24,1.118,0.495,2.282,0.759,3.481V149.971z M168.818,164.109l-0.759-0.05v-12.191c0.252,0.583,0.503,1.152,0.759,1.708V164.109z
	 M168.818,152.248c-0.255-0.578-0.507-1.172-0.759-1.772v-27.034c0.243,1.093,0.496,2.213,0.759,3.351V152.248z M169.783,164.184
	l-0.757-0.059v-10.096c0.252,0.542,0.503,1.073,0.757,1.588V164.184z M169.787,154.378c-0.255-0.538-0.508-1.091-0.761-1.659
	v-25.022c0.248,1.061,0.498,2.139,0.761,3.225V154.378z M170.752,164.261l-0.759-0.061v-8.165c0.252,0.503,0.501,0.993,0.759,1.467
	V164.261z M170.752,156.351c-0.256-0.497-0.507-1.008-0.759-1.536v-23.028c0.246,1.027,0.501,2.06,0.759,3.096V156.351z
	 M171.718,164.347l-0.759-0.066v-6.396c0.25,0.457,0.505,0.904,0.759,1.334V164.347z M171.718,158.159
	c-0.254-0.451-0.505-0.921-0.759-1.405v-21.041c0.248,0.989,0.503,1.978,0.759,2.961V158.159z M172.684,164.441l-0.759-0.073v-4.801
	c0.254,0.415,0.502,0.816,0.759,1.197V164.441z M172.684,159.8c-0.255-0.405-0.505-0.828-0.759-1.271v-19.061
	c0.251,0.946,0.502,1.889,0.759,2.822V159.8z M173.651,164.543l-0.762-0.081v-3.387c0.255,0.37,0.506,0.723,0.762,1.057V164.543z
	 M173.651,161.255c-0.255-0.355-0.507-0.73-0.762-1.126v-17.083c0.255,0.903,0.506,1.796,0.762,2.678V161.255z M174.615,164.653
	l-0.759-0.088V162.4c0.253,0.322,0.505,0.625,0.759,0.906V164.653z M174.617,162.517c-0.255-0.302-0.505-0.626-0.76-0.972v-15.108
	c0.251,0.856,0.502,1.699,0.76,2.525V162.517z M175.585,164.773l-0.761-0.095v-1.144c0.254,0.27,0.504,0.52,0.761,0.745V164.773z
	 M175.585,163.569c-0.254-0.245-0.507-0.517-0.761-0.806v-13.13c0.252,0.804,0.504,1.591,0.761,2.36V163.569z M175.791,164.799
	v-0.334c0.171,0.144,0.34,0.279,0.511,0.405L175.791,164.799z M176.548,164.4c-0.25-0.185-0.505-0.396-0.757-0.633v-11.149
	c0.252,0.75,0.505,1.478,0.757,2.185V164.4z M177.515,164.984c-0.253-0.117-0.504-0.265-0.759-0.438v-9.17
	c0.253,0.688,0.505,1.353,0.759,1.995V164.984z M178.48,165.195l-0.758-0.117v-7.187c0.253,0.625,0.503,1.22,0.758,1.788V165.195z
	 M179.447,165.226c-0.079,0.039-0.158,0.069-0.235,0.094l-0.525-0.09v-5.089c0.255,0.554,0.507,1.074,0.761,1.56V165.226z
	 M180.413,165.54l-0.372-0.07c0.127-0.099,0.253-0.212,0.372-0.336V165.54z M180.413,164.323c-0.25,0.336-0.503,0.603-0.759,0.778
	v-3.006c0.255,0.472,0.507,0.909,0.759,1.307V164.323z M181.38,165.736c-0.254-0.057-0.504-0.104-0.76-0.155v-0.682
	c0.143-0.172,0.291-0.362,0.428-0.568c0.109,0.146,0.222,0.285,0.332,0.417V165.736z M182.349,165.951
	c-0.254-0.059-0.507-0.114-0.76-0.171v-0.792c0.253,0.28,0.504,0.518,0.76,0.702V165.951z M182.349,165.021
	c-0.254-0.22-0.506-0.491-0.76-0.814v-0.771c0.265-0.488,0.515-1.031,0.76-1.6V165.021z M184.276,166.445
	c-0.251-0.068-0.499-0.138-0.755-0.249c-0.055-0.004-0.106-0.011-0.215-0.011c-0.249-0.063-0.499-0.128-0.758-0.188v-0.163
	c0.255,0.163,0.509,0.272,0.808,0.341c0.056,0.01,0.106,0.017,0.16,0.02c0.263,0.021,0.515-0.033,0.755-0.156h0.002v0.405
	L184.276,166.445L184.276,166.445z M185.122,166.693c-0.209-0.066-0.42-0.129-0.636-0.189v-0.584
	c0.222-0.148,0.434-0.354,0.636-0.607V166.693z M185.244,156.688l-0.122,0.101v4.572v3.036c-0.204,0.347-0.417,0.638-0.636,0.851
	V155.18c0.301-1.161,0.558-2.249,0.758-3.145V156.688z M188.351,150.047h0.211v0.073h0.088c-0.074,0.553-0.174,1.249-0.296,2.033
	v-2.106H188.351z M187.382,150.048l0.863-0.001v2.757l-0.01,0.055l-0.854-0.003V150.048z M188.245,155.969v1.11h-0.222
	C188.101,156.707,188.176,156.338,188.245,155.969z M188.031,154.089c-0.17,0.954-0.364,1.971-0.581,2.99h-0.064l-0.002-2.993
	L188.031,154.089z M187.382,159.798c0.104-0.393,0.204-0.792,0.295-1.188l0.568-0.001v3.655h-0.863V159.798z M187.382,164.014h0.318
	h0.545v3.883c-0.273-0.137-0.559-0.265-0.863-0.392V164.014z M187.555,173.553h-0.086l-0.816-0.953v-0.169h1.729v0.153
	L187.555,173.553z M187.592,174.314l0.842,0.98v0.1h-1.854v-0.085l0.856-0.997L187.592,174.314L187.592,174.314z M186.651,164.014
	h0.628v3.447c-0.277-0.113-0.564-0.226-0.861-0.333v-2.312l0.005-0.132l0.049-0.245l0.127-0.222L186.651,164.014z M186.64,162.266
	c0.229-0.656,0.447-1.356,0.64-2.072v2.07L186.64,162.266z M187.117,170.742l-0.777,0.91h-0.1v-0.986
	C186.383,170.701,186.702,170.719,187.117,170.742z M186.652,172.077v-0.175l0.825-0.96h0.067l0.837,0.972v0.162l0,0
	L186.652,172.077L186.652,172.077z M186.479,150.122v-0.073h0.8l0,0v2.807l-0.682-0.005l-0.176-0.165l-0.006-2.565L186.479,150.122
	L186.479,150.122z M186.466,154.157v-0.071h0.813v2.993l-0.792,0.001l-0.069-0.076L186.466,154.157z M186.418,158.721l0.086-0.111
	h0.604c-0.213,0.891-0.442,1.761-0.688,2.567l0,0L186.418,158.721L186.418,158.721z M186.323,161.485l-0.084,0.262v-0.386v-2.254
	l0.084-0.033V161.485z M186.043,152.396v-2.078l0.157-0.197h0.122v2.565h-0.253v-0.183L186.043,152.396z M186.117,154.566
	l0.205-0.379l-0.021,2.688h-0.062v-0.088l-0.17-0.141L186.117,154.566z M186.237,165.173l0.085-0.013v1.933l-0.085-0.028V165.173z
	 M186.239,175.023v-2.037v-0.157h0.072l0.805,0.937v0.294l-0.816,0.961L186.239,175.023z M188.671,176.771l-2.302,0.002v-0.744
	l0.159-0.279h1.973l0.178,0.158L188.671,176.771z M188.802,172.958v2.016h-0.121l-0.78-0.916v-0.287l0.732-0.854l-0.002-0.089h0.171
	V172.958z M188.802,171.652h-0.121l-0.773-0.908l0.895,0.021V171.652z M188.802,168.188c-0.145-0.078-0.295-0.161-0.451-0.24v-3.935
	h0.069l0.054,0.203l0.128,0.223l0.048,0.245l0.021,0.463l0.136,0.02L188.802,168.188L188.802,168.188z M188.804,161.329v0.727
	h-0.098l-0.182,0.207h-0.174v-3.656l0.186-0.002l0.137,0.177l0.021,0.281l0.109,0.042V161.329L188.804,161.329z M188.972,156.62
	l-0.415,0.459h-0.206v-1.651c0.083-0.432,0.154-0.855,0.225-1.265h0.124l0.272,0.411V156.62z M188.997,152.367l-0.025,0.105v0.215
	h-0.15c0.063-0.412,0.125-0.802,0.177-1.159L188.997,152.367L188.997,152.367z"/>
<circle fill="none" stroke="#24B2B0" stroke-width="3" stroke-miterlimit="10" cx="150" cy="153" r="53.5"/>
</svg>
