<?xml version="1.0" encoding="utf-8"?>
<!-- Generator: Adobe Illustrator 16.0.0, SVG Export Plug-In . SVG Version: 6.00 Build 0)  -->
<!DOCTYPE svg PUBLIC "-//W3C//DTD SVG 1.1//EN" "http://www.w3.org/Graphics/SVG/1.1/DTD/svg11.dtd">
<svg version="1.1" id="Layer_1" xmlns="http://www.w3.org/2000/svg" xmlns:xlink="http://www.w3.org/1999/xlink" x="0px" y="0px"
	 width="56.375px" height="49.875px" viewBox="0 0 56.375 49.875" enable-background="new 0 0 56.375 49.875" xml:space="preserve">
<path fill="none" stroke="#FF9100" stroke-width="3" stroke-miterlimit="10" d="M54.814,46.498c0,1.074-0.871,1.943-1.945,1.943
	H3.76c-1.074,0-1.945-0.869-1.945-1.943V3.41c0-1.073,0.871-1.944,1.945-1.944h49.109c1.074,0,1.945,0.871,1.945,1.944V46.498z"/>
<g>
	<path fill="#FF9100" d="M19.355,28.197c0-0.704,0.592-1.297,1.296-1.297s1.296,0.593,1.296,1.297c0,0.705-0.592,1.297-1.296,1.297
		S19.355,28.902,19.355,28.197z"/>
	<path fill="#FF9100" d="M31.118,29.318l-0.656-1.81h-4.578l-0.672,1.81h-2.593l4.129-10.677h2.85l4.113,10.677H31.118z
		 M28.173,20.915l-1.665,4.594h3.33L28.173,20.915z"/>
	<path fill="#FF9100" d="M34.699,29.318V18.642h2.271v10.676H34.699L34.699,29.318z"/>
</g>
</svg>
