<?xml version="1.0" encoding="utf-8"?>
<!-- Generator: Adobe Illustrator 16.0.0, SVG Export Plug-In . SVG Version: 6.00 Build 0)  -->
<!DOCTYPE svg PUBLIC "-//W3C//DTD SVG 1.1//EN" "http://www.w3.org/Graphics/SVG/1.1/DTD/svg11.dtd">
<svg version="1.1" id="Layer_1" xmlns="http://www.w3.org/2000/svg" xmlns:xlink="http://www.w3.org/1999/xlink" x="0px" y="0px"
	 width="97.5px" height="100px" viewBox="2.5 0 97.5 100" enable-background="new 2.5 0 97.5 100" xml:space="preserve">
<g id="surface1">
	<path fill="#FFFFFF" d="M7.114,0C6.006,0.201,5.242,1.234,5.368,2.351l7.591,84.773c0.1,0.864,0.713,1.577,1.545,1.813
		l34.392,9.875c0.395,0.117,0.814,0.117,1.209,0l34.393-9.875c0.831-0.235,1.444-0.948,1.545-1.813l7.591-84.773
		c0.059-0.605-0.143-1.201-0.554-1.654C92.667,0.252,92.088,0,91.483,0H7.517C7.45,0,7.383,0,7.315,0C7.249,0,7.182,0,7.114,0z
		 M9.868,4.299h79.264l-7.187,80.943L49.5,94.445l-32.444-9.203L9.868,4.299z M22.698,17.331c-1.108,0.201-1.873,1.234-1.747,2.351
		l2.888,31.772c0.067,1.108,0.975,1.981,2.083,2.016h34.325l-0.94,9.874l-9.74,2.082l-9.874-2.082l-0.336-3.492
		c-0.067-1.134-1.016-2.016-2.149-2.016H26.729c-0.604,0-1.184,0.252-1.595,0.696c-0.412,0.454-0.613,1.05-0.554,1.654l1.209,13.166
		c0.067,0.865,0.646,1.612,1.478,1.881l21.361,6.516l0.269,0.067c0.395,0.118,0.814,0.118,1.209,0l21.63-6.583
		c0.856-0.243,1.47-0.99,1.545-1.881l2.821-32.31c0.059-0.596-0.135-1.184-0.528-1.629c-0.396-0.445-0.958-0.705-1.554-0.722h-36.61
		l-0.537-6.65h38.087c1.116,0.009,2.049-0.84,2.149-1.948l0.94-10.412c0.059-0.604-0.143-1.201-0.555-1.654
		c-0.411-0.445-0.99-0.697-1.595-0.697H23.101C22.967,17.313,22.833,17.313,22.698,17.331z M25.452,21.629h48.096l-0.537,6.113
		h-38.49c-0.604,0-1.184,0.252-1.596,0.697c-0.411,0.454-0.612,1.05-0.554,1.654l1.008,10.949c0.101,1.083,0.999,1.923,2.083,1.948
		h36.206l-2.552,28.548L49.5,77.45l-19.614-5.911l-0.806-9.404h6.18l0.269,3.157c0.067,0.949,0.747,1.738,1.679,1.948l11.957,2.484
		c0.285,0.06,0.587,0.06,0.874,0l11.754-2.484c0.934-0.21,1.613-0.999,1.68-1.948l1.276-13.838c0.034-0.596-0.176-1.175-0.579-1.604
		c-0.411-0.437-0.974-0.68-1.57-0.68H27.871L25.452,21.629z"/>
</g>
</svg>
