<?xml version="1.0" encoding="utf-8"?>
<!-- Generator: Adobe Illustrator 16.0.0, SVG Export Plug-In . SVG Version: 6.00 Build 0)  -->
<!DOCTYPE svg PUBLIC "-//W3C//DTD SVG 1.1//EN" "http://www.w3.org/Graphics/SVG/1.1/DTD/svg11.dtd">
<svg version="1.1" id="Layer_1" xmlns="http://www.w3.org/2000/svg" xmlns:xlink="http://www.w3.org/1999/xlink" x="0px" y="0px"
	 width="100px" height="100px" viewBox="0 0 100 100" enable-background="new 0 0 100 100" xml:space="preserve">
<g id="surface1">
	<path fill="#FFFFFF" d="M17.813,4C10.289,4,4.188,10.328,4.188,17.813c0,5.805,3.734,10.781,9.188,12.5
		c-1.406,6.82,0.367,14.242,5.625,19.5l0.375,0.375l-0.25,0.125l-0.188,0.125l-0.125,0.125c-5.094,5.094-7.055,12.227-5.938,18.875
		C7.734,71.547,4,76.32,4,82.188C4,89.672,10.125,96,17.813,96c5.867,0,10.68-3.75,12.625-9.063
		c6.586,1.07,13.531-0.859,18.75-5.875V81l0.188-0.188l0.438,0.375c5.258,5.258,12.734,7.203,19.75,5.625
		C71.43,92.141,76.367,96,82.375,96c7.484,0,13.813-6.125,13.813-13.813v-0.063c-0.211-6.242-4.508-11.219-10.25-12.875
		c1.039-6.563-0.906-13.406-5.938-18.438l-0.375-0.438l0.188-0.188c5.242-5.242,6.984-12.484,5.75-19.25
		c5.75-1.664,10.063-6.664,10.063-12.938c0-7.484-6.125-13.813-13.813-13.813c-6.258,0-11.258,4.281-12.938,10
		c-6.805-1.383-14.047,0.555-19.438,5.75l-0.375-0.313c-0.023-0.023-0.039-0.039-0.063-0.063c-4.883-5.039-11.758-6.781-18.25-5.875
		C29.055,8.063,23.906,4,17.813,4z M17.813,8c4.836,0,8.969,3.477,9.625,8.063l0.313,2.125l2.063-0.438
		c5.789-1.266,12.102,0.172,16.375,4.625v0.063l0.188,0.188l-5.75,5.75l-0.188-0.188c-3.578-3.578-9.484-3.578-13.063,0
		s-3.578,9.422,0,13l0.125,0.125l0.438,0.375l-0.125,0.125l10,10l1.375,1.438L39.375,53l7.188,7.188L40.813,66L32,57.188
		l-8.563-8.625l-0.5-0.438L21.813,47c-4.656-4.656-6.102-11.531-4.313-17.438l0.688-2.188L15.875,27
		c-4.617-0.656-7.688-4.492-7.688-9.188C8.188,12.492,12.539,8,17.813,8z M81.813,8.188c5.508,0,9.813,4.492,9.813,9.813
		c0,5.023-3.641,8.953-8.5,9.625l-2.25,0.313l0.625,2.188c1.617,5.945,0.172,12.578-4.5,17.25l-0.188,0.188L71,41.813l0.188-0.188
		c3.578-3.578,3.578-9.484,0-13.063s-9.422-3.578-13,0l-1.625,1.625L48,38.813l-1.438,1.375l0.063,0.063l-7.188,7.125l-5.875-5.813
		L42,33l8.625-8.563l1.563-1.625c4.906-4.727,11.555-6.281,17.438-4.5L71.875,19l0.313-2.313
		C72.859,11.828,76.789,8.188,81.813,8.188z M33.875,29.5c1.336,0,2.672,0.484,3.688,1.5L38,31.438l-7.313,7.375l-0.5-0.438
		l-0.063-0.063c-1.961-2.031-1.945-5.305,0.063-7.313C31.203,29.984,32.539,29.5,33.875,29.5z M64.688,29.875
		c1.336,0,2.672,0.547,3.688,1.563c2.023,2.023,2.023,5.352,0,7.375L68.25,39l-7.375-7.375L61,31.438
		C62.016,30.422,63.352,29.875,64.688,29.875z M58,34.438l7.375,7.375l1.438,1.375l8.313,8.375l2.063,2.063
		c4.508,4.508,6.117,10.773,4.688,16.5l-0.563,2.125l2.188,0.313c4.844,0.664,8.492,4.594,8.688,9.625c0,0.023,0,0.039,0,0.063
		C92.156,87.727,87.672,92,82.375,92c-4.883,0-8.805-3.305-9.625-7.75L72.375,82l-2.188,0.688
		c-6.023,1.953-12.766,0.391-17.438-4.188l-0.5-0.5L58,72.25l0.25,0.25c3.578,3.508,9.383,3.492,12.938-0.063
		c3.531-3.531,3.578-9.352,0.125-12.938l-0.125-0.125l-0.125-0.188L71.25,59l-1.438-1.438L61.188,49l-1.375-1.438l-0.125,0.125
		L52.25,40.25L58,34.438z M49.375,43l7.5,7.5l-7.188,7.188l-7.438-7.5L49.375,43z M22.125,53.125l5.938,6l-0.25,0.25
		c-3.578,3.578-3.578,9.484,0,13.063s9.422,3.578,13,0l0.063-0.063v-0.063l1.563-1.688L42.5,70.5l8.25-8.188L51,62l8.688-8.688
		l5.813,5.813l-7.5,7.5l-0.25-0.313l-1.375,1.5l-7.938,8.313l-0.5,0.5l-1.5,1.563h-0.063c-4.719,4.516-10.977,6.117-16.688,4.688
		l-2-0.5l-0.438,2C26.242,88.914,22.508,92,17.813,92C12.305,92,8,87.508,8,82.188c0-4.695,3.125-8.508,7.5-9.688l1.938-0.5
		l-0.5-1.875c-1.422-5.703,0.227-12.133,4.688-16.625c0.016-0.016-0.016-0.047,0-0.063L22.125,53.125z M31,61.813l7.375,7.375
		L38,69.563c-2.023,2.023-5.352,2.023-7.375,0s-2.023-5.352,0-7.375L31,61.813z M68.25,62l0.063,0.125l0.063,0.063
		c2.023,2.023,2.023,5.352,0,7.375s-5.352,2.023-7.375,0l-0.188-0.125L68.25,62z"/>
</g>
</svg>
