<?xml version="1.0" encoding="utf-8"?>
<!-- Generator: Adobe Illustrator 16.0.0, SVG Export Plug-In . SVG Version: 6.00 Build 0)  -->
<!DOCTYPE svg PUBLIC "-//W3C//DTD SVG 1.1//EN" "http://www.w3.org/Graphics/SVG/1.1/DTD/svg11.dtd">
<svg version="1.1" id="Layer_1" xmlns="http://www.w3.org/2000/svg" xmlns:xlink="http://www.w3.org/1999/xlink" x="0px" y="0px"
	 width="56.167px" height="50.333px" viewBox="0 0 56.167 50.333" enable-background="new 0 0 56.167 50.333" xml:space="preserve">
<path fill="none" stroke="#03B1FF" stroke-width="3" stroke-miterlimit="10" d="M54.626,46.756c0,1.074-0.871,1.945-1.945,1.945
	H3.57c-1.074,0-1.945-0.871-1.945-1.945V3.668c0-1.073,0.871-1.944,1.945-1.944h49.11c1.073,0,1.944,0.871,1.944,1.944v43.088
	H54.626z"/>
<g>
	<path fill="#03B1FF" d="M11.294,28.456c0-0.703,0.592-1.295,1.296-1.295c0.704,0,1.296,0.592,1.296,1.295
		c0,0.705-0.592,1.297-1.296,1.297C11.886,29.752,11.294,29.161,11.294,28.456z"/>
	<path fill="#03B1FF" d="M15.694,29.577V18.9h4.994c2.321,0,3.585,1.568,3.585,3.441c0,1.856-1.28,3.441-3.585,3.441h-2.721v3.793
		h-2.273V29.577z M21.953,22.342c0-0.896-0.672-1.44-1.569-1.44h-2.417v2.881h2.417C21.28,23.782,21.953,23.222,21.953,22.342z"/>
	<path fill="#03B1FF" d="M24.957,28.073l1.233-1.73c0.752,0.783,1.92,1.441,3.394,1.441c1.248,0,1.855-0.578,1.855-1.186
		c0-1.889-6.146-0.592-6.146-4.61c0-1.777,1.537-3.25,4.048-3.25c1.697,0,3.105,0.512,4.162,1.489l-1.265,1.665
		c-0.864-0.8-2.018-1.168-3.104-1.168c-0.976,0-1.521,0.432-1.521,1.072c0,1.697,6.131,0.561,6.131,4.546
		c0,1.951-1.394,3.425-4.273,3.425C27.422,29.769,25.95,29.081,24.957,28.073z"/>
	<path fill="#03B1FF" d="M35.277,29.577V18.9h4.21c3.345,0,5.667,2.129,5.667,5.346s-2.322,5.331-5.667,5.331H35.277z
		 M42.832,24.247c0-1.889-1.151-3.345-3.345-3.345H37.55v6.675h1.937C41.6,27.577,42.832,26.055,42.832,24.247z"/>
</g>
</svg>
