<?xml version="1.0" encoding="utf-8"?>
<!-- Generator: Adobe Illustrator 16.0.0, SVG Export Plug-In . SVG Version: 6.00 Build 0)  -->
<!DOCTYPE svg PUBLIC "-//W3C//DTD SVG 1.1//EN" "http://www.w3.org/Graphics/SVG/1.1/DTD/svg11.dtd">
<svg version="1.1" id="Layer_1" xmlns="http://www.w3.org/2000/svg" xmlns:xlink="http://www.w3.org/1999/xlink" x="0px" y="0px"
	 width="46.667px" height="45px" viewBox="26.5 29.833 46.667 45" enable-background="new 26.5 29.833 46.667 45"
	 xml:space="preserve">
<g id="surface1">
	<path fill="#FFFFFF" stroke="#FFFFFF" stroke-width="0.75" stroke-miterlimit="10" d="M70.263,32.241
		c-0.035,0.009-0.071,0.022-0.106,0.035c-0.297,0.076-0.555,0.267-0.71,0.533L46.228,68.808L30.252,54.394
		c-0.28-0.354-0.746-0.51-1.185-0.395c-0.439,0.115-0.763,0.483-0.83,0.932c-0.067,0.448,0.137,0.893,0.523,1.132l16.935,15.337
		c0.249,0.218,0.582,0.315,0.91,0.267c0.329-0.049,0.617-0.235,0.794-0.516l23.964-37.135c0.262-0.373,0.275-0.865,0.035-1.251
		C71.159,32.378,70.711,32.174,70.263,32.241z"/>
</g>
</svg>
