<?xml version="1.0" encoding="utf-8"?>
<!-- Generator: Adobe Illustrator 16.0.0, SVG Export Plug-In . SVG Version: 6.00 Build 0)  -->
<!DOCTYPE svg PUBLIC "-//W3C//DTD SVG 1.1//EN" "http://www.w3.org/Graphics/SVG/1.1/DTD/svg11.dtd">
<svg version="1.1" id="Layer_1" xmlns="http://www.w3.org/2000/svg" xmlns:xlink="http://www.w3.org/1999/xlink" x="0px" y="0px"
	 width="100px" height="100px" viewBox="0 0 100 100" enable-background="new 0 0 100 100" xml:space="preserve">
<g id="surface1">
	<path fill="#FFFFFF" d="M50,2C23.516,2,2,23.516,2,50s21.516,48,48,48s48-21.516,48-48S76.484,2,50,2z M50,6
		c24.32,0,44,19.68,44,44S74.32,94,50,94S6,74.32,6,50S25.68,6,50,6z M50,10c-22.078,0-40,17.922-40,40s17.922,40,40,40
		s40-17.922,40-40S72.078,10,50,10z M50,14c8.523,0,16.344,2.945,22.5,7.875c-1.914,1.273-3.125,3.523-3.125,5.938
		c0,3.203,1.813,5.984,3.813,9.188c1.602,2.602,3.188,6.016,3.188,10.813c0,3.398-1,7.609-3,12.813l-4,13.188L55.188,31.375
		C57.586,31.172,59.813,31,59.813,31c2-0.203,1.813-3.188-0.188-3.188h-0.25c0,0-6.359,0.563-10.563,0.563
		c-3.797,0-10.438-0.563-10.438-0.563h-0.188C36.188,27.813,36,31,38,31c0,0,1.984,0.172,4.188,0.375l6.188,16.813L39.813,74
		L25.375,31.188C27.773,30.984,30,30.813,30,30.813c2-0.203,1.813-3.188-0.188-3.188h-0.188c0,0-4.359,0.359-8.25,0.5
		C27.945,19.531,38.32,14,50,14z M74.813,25.375c2.398,2.398,4.398,5.25,6,8.25v1.563c0,2.398-0.398,4.789-1,7.188
		c-0.797-2.797-1.797-5.188-3-7.188l-0.438-0.813c-1.602-2.602-2.75-4.578-2.75-6.375C73.625,27,74.016,25.977,74.813,25.375z
		 M47.188,32.188h2c0.797,0.203,1.438,0.188,2.438,0.188l0.188,0.438L66,75.188l1.375,4L67,80.625
		c-0.602,0.203-1.023,0.547-1.625,0.75L54.375,52L53,48.188l-0.375-1.375L47.188,32.188z M19.813,32.375h2L22,32.813l14.375,42.813
		l1.25,3.563l-1,3.188C36.227,82.172,36.016,82,35.813,82L18.625,34.813L19.813,32.375z M84,38.188c1.281,3.695,2,7.672,2,11.813
		c0,12.258-6.109,23.063-15.438,29.563l10.625-30.75C82.758,44.813,83.641,41.313,84,38.188z M15.563,39.625l14.813,40.563
		C20.523,73.773,14,62.664,14,50C14,46.398,14.586,42.906,15.563,39.625z M50,53.188l11.375,30.938C57.805,85.313,53.977,86,50,86
		c-3.711,0-7.32-0.586-10.688-1.625L50,53.188z"/>
</g>
</svg>
